<svg preserveAspectRatio="none" overflow="visible" style="display: block;" width="20" height="20" viewBox="0 0 20 20" fill="none" xmlns="http://www.w3.org/2000/svg">
<g id="Icon/baggage-claim" clip-path="url(#clip0_0_55)">
<path id="Vector" d="M8.33333 16.6667C8.33333 16.2064 7.96024 15.8333 7.5 15.8333C7.03976 15.8333 6.66667 16.2064 6.66667 16.6667C6.66667 17.1269 7.03976 17.5 7.5 17.5C7.96024 17.5 8.33333 17.1269 8.33333 16.6667ZM15.8333 16.6667C15.8333 16.2064 15.4602 15.8333 15 15.8333C14.5398 15.8333 14.1667 16.2064 14.1667 16.6667C14.1667 17.1269 14.5398 17.5 15 17.5C15.4602 17.5 15.8333 17.1269 15.8333 16.6667ZM15 5.83333V10.8333H16.6667V5.83333H15ZM10.8333 10.8333H13.3333V5.83333H10.8333V10.8333ZM17.5 16.6667C17.5 18.0474 16.3807 19.1667 15 19.1667C13.6193 19.1667 12.5 18.0474 12.5 16.6667C12.5 16.3742 12.5525 16.0942 12.6449 15.8333H9.85514C9.94745 16.0942 10 16.3742 10 16.6667C10 18.0474 8.88071 19.1667 7.5 19.1667C6.11929 19.1667 5 18.0474 5 16.6667C5 16.3742 5.05255 16.0942 5.14486 15.8333H5C4.33696 15.8333 3.70126 15.5698 3.23242 15.1009C2.76358 14.6321 2.5 13.9964 2.5 13.3333V5.83333C2.5 5.61232 2.41214 5.40042 2.25586 5.24414C2.09958 5.08786 1.88768 5 1.66667 5C1.20643 5 0.833333 4.6269 0.833333 4.16667C0.833333 3.70643 1.20643 3.33333 1.66667 3.33333C2.32971 3.33333 2.9654 3.59691 3.43424 4.06576C3.90309 4.5346 4.16667 5.17029 4.16667 5.83333V13.3333L4.17074 13.4155C4.18964 13.6064 4.27402 13.7857 4.41081 13.9225C4.56709 14.0788 4.77899 14.1667 5 14.1667H18.3333C18.7936 14.1667 19.1667 14.5398 19.1667 15C19.1667 15.4602 18.7936 15.8333 18.3333 15.8333H17.3551C17.4475 16.0942 17.5 16.3742 17.5 16.6667ZM7.5 10.8333H9.16667V5.83333H7.5V10.8333ZM13.3333 3.33333C13.3333 3.11232 13.2455 2.90042 13.0892 2.74414C12.9329 2.58786 12.721 2.5 12.5 2.5H11.6667C11.4457 2.5 11.2338 2.58786 11.0775 2.74414C10.9212 2.90042 10.8333 3.11232 10.8333 3.33333V4.16667H13.3333V3.33333ZM15 4.16667H16.6667C17.5871 4.16667 18.3333 4.91286 18.3333 5.83333V10.8333C18.3333 11.7538 17.5871 12.5 16.6667 12.5H7.5C6.57953 12.5 5.83333 11.7538 5.83333 10.8333V5.83333C5.83333 4.91286 6.57953 4.16667 7.5 4.16667H9.16667V3.33333C9.16667 2.67029 9.43025 2.0346 9.89909 1.56576C10.3679 1.09691 11.0036 0.833333 11.6667 0.833333H12.5C13.163 0.833333 13.7987 1.09691 14.2676 1.56576C14.7364 2.0346 15 2.67029 15 3.33333V4.16667Z" fill="#6B7280"/>
</g>
<defs>
<clipPath id="clip0_0_55">
<rect width="20" height="20" fill="white"/>
</clipPath>
</defs>
</svg>
