<svg preserveAspectRatio="none" overflow="visible" style="display: block;" width="20" height="20" viewBox="0 0 20 20" fill="none" xmlns="http://www.w3.org/2000/svg">
<g id="Icon/circle-arrow-up" clip-path="url(#clip0_0_84)">
<path id="Vector" d="M17.5 10C17.5 5.85786 14.1421 2.5 10 2.5C5.85786 2.5 2.5 5.85786 2.5 10C2.5 14.1421 5.85786 17.5 10 17.5C14.1421 17.5 17.5 14.1421 17.5 10ZM9.16667 13.3333V8.67839L7.25586 10.5892C6.93042 10.9146 6.40291 10.9146 6.07747 10.5892C5.75204 10.2638 5.75204 9.73624 6.07747 9.41081L9.41081 6.07747L9.47428 6.02051C9.8016 5.75355 10.2841 5.77238 10.5892 6.07747L13.9225 9.41081C14.248 9.73624 14.248 10.2638 13.9225 10.5892C13.5971 10.9146 13.0696 10.9146 12.7441 10.5892L10.8333 8.67839V13.3333C10.8333 13.7936 10.4602 14.1667 10 14.1667C9.53976 14.1667 9.16667 13.7936 9.16667 13.3333ZM19.1667 10C19.1667 15.0626 15.0626 19.1667 10 19.1667C4.93739 19.1667 0.833333 15.0626 0.833333 10C0.833333 4.93739 4.93739 0.833333 10 0.833333C15.0626 0.833333 19.1667 4.93739 19.1667 10Z" fill="#1F6F43"/>
</g>
<defs>
<clipPath id="clip0_0_84">
<rect width="20" height="20" fill="white"/>
</clipPath>
</defs>
</svg>
